<svg xmlns="http://www.w3.org/2000/svg" width="377" height="439" viewBox="0 0 377 439"><g fill="none" fill-rule="evenodd" stroke="currentColor" transform="translate(6.419 6.79)"><path stroke-width="12" d="M45,362.735809 L114.220454,362.735809 C120.531954,362.735809 126.473131,365.715029 130.24829,370.773013 L165.27228,417.698394 C171.548806,426.107727 183.454047,427.836708 191.863379,421.560182 C193.356372,420.445848 194.677357,419.11799 195.78393,417.619236 L230.310294,370.856338 C234.080862,365.749438 240.051945,362.735809 246.399985,362.735809 L319.06897,362.735809 C343.921783,362.735809 364.06897,342.588623 364.06897,317.735809 L364.06897,45 C364.06897,20.1471863 343.921783,-4.56538782e-15 319.06897,0 L41,0 C18.3563253,4.15957557e-15 -2.77305038e-15,18.3563253 0,41 L0,317.735809 C3.04359188e-15,342.588623 20.1471863,362.735809 45,362.735809 Z"/><rect width="159" height="176" x="101.081" y="94.71" stroke-width="61" rx="79.5"/></g></svg>